<svg width="526" height="629" viewBox="0 0 526 629" fill="none" xmlns="http://www.w3.org/2000/svg">
<path d="M252.586 497.121C249.054 508.349 253.865 552.138 252.586 565.646C252.424 567.33 252.305 569.299 252.21 571.46C252.21 571.752 252.21 572.049 252.174 572.348C251.56 587.594 252.04 611.343 248.728 614.306C246.222 616.553 235.563 617.62 227.535 617.793C226.403 617.793 225.317 617.834 224.326 617.834C222.392 617.895 220.453 617.776 218.546 617.475C215.338 616.614 228.504 607.107 229.464 603.947C229.857 602.62 227.816 592.273 225.103 578.797L224.793 577.26C220.92 558.11 215.849 533.347 214.37 519.301C212.758 503.936 205.5 477.13 200.651 458.006C199.867 454.931 199.172 452.041 198.543 449.448C196.895 442.463 195.957 437.518 196.393 436.086C197.391 432.852 203.4 422.166 211.176 413.662C215.885 408.558 221.244 404.262 226.544 402.89C230.647 401.83 235.844 400.451 241.166 399.039L241.52 398.947C254.42 395.506 267.873 391.853 267.873 391.853C267.756 393.179 256.09 485.972 252.586 497.121Z" fill="#5897CE"/>
<path d="M202.171 417.076C202.171 417.076 219.913 529.946 222.936 545.782C225.96 561.617 228.178 582.351 228.178 582.351" stroke="#1B232A" stroke-miterlimit="10"/>
<path d="M166.847 507.941C165.887 516.293 170.063 551.133 173.596 575.32C173.648 575.671 173.7 576.022 173.744 576.366C173.84 577.03 173.922 577.652 174.01 578.295C176.967 601.131 175.489 619.718 174.557 621.097C173.818 622.236 160.372 624.457 151.147 625.325H150.977L150.334 625.384H150.223C148.183 625.564 146.394 625.669 145.048 625.669C137.656 625.669 134.13 624.231 136.695 621.355C139.26 618.478 147.266 615.018 146.638 611.272C146.409 609.948 143.489 598.678 139.704 583.977C139.541 583.36 139.386 582.729 139.216 582.1C132.393 555.586 123.101 519.176 121.409 508.485C118.718 491.495 117.432 426.131 136.377 399.353L200.689 408.745L220.084 411.575V411.636C218.526 414.234 167.801 499.701 166.847 507.941Z" fill="#5897CE"/>
<path d="M155.722 232.412C155.743 244.485 152.013 256.323 144.952 266.602H144.886C142.779 266.602 140.687 266.523 138.625 266.35C128.171 265.515 118.055 262.606 109.01 257.834C99.9636 253.062 92.2134 246.547 86.3198 238.761C80.4261 230.974 76.5362 222.11 74.9316 212.81C73.3269 203.509 74.0476 194.005 77.0415 184.985C77.3741 183.965 77.7806 182.957 78.1355 181.963C80.1323 176.899 82.8425 172.086 86.2002 167.639L86.5773 167.148C105.235 168.006 122.813 175.257 135.68 187.402C148.548 199.547 155.722 215.66 155.722 232.412Z" fill="#C1E2FF"/>
<path d="M154.005 407.284C154.005 407.284 104.634 468.93 148.904 595.018" stroke="#4A79A1" stroke-miterlimit="10"/>
<path d="M215.664 203.141C215.664 205.341 215.538 207.509 215.3 209.649C215.123 211.187 214.876 212.707 214.561 214.209C211.648 228.877 203.077 242.16 190.347 251.733C177.615 261.306 161.536 266.56 144.921 266.575C151.527 256.915 155.219 245.88 155.634 234.554C156.049 223.229 153.172 212.001 147.286 201.974C141.4 191.945 132.707 183.462 122.061 177.357C111.415 171.251 99.1811 167.733 86.5607 167.148C87.773 165.563 89.0739 164.032 90.4415 162.561C98.0354 154.374 107.804 148.031 118.848 144.118C129.893 140.204 141.857 138.845 153.641 140.165C165.425 141.486 176.648 145.443 186.28 151.674C195.91 157.904 203.638 166.207 208.752 175.818C209.262 176.772 209.742 177.747 210.193 178.727C213.805 186.458 215.664 194.758 215.664 203.141Z" fill="url(#paint0_linear)"/>
<path d="M107.291 216.677C107.291 216.677 105.074 239.134 107.809 241.075C110.544 243.018 112.281 239.551 111.852 233.943L107.291 216.677Z" fill="#D27358"/>
<path d="M268.862 389.627C268.62 390.391 268.303 391.133 267.916 391.848C265.808 395.739 259.549 403.116 240.063 408.558C231.436 410.872 222.597 412.491 213.651 413.396C212.83 413.489 212.018 413.576 211.203 413.648C180.897 416.671 157.242 412.575 143.759 408.485C136.234 406.205 131.88 403.918 131.289 402.876C129.64 399.981 132.708 390.064 132.841 389.62C132.841 389.786 133.425 392.007 162.742 396.076H162.823C164.767 396.349 166.83 396.619 169.025 396.911L169.594 396.978C170.422 397.084 171.265 397.17 172.122 397.236H172.211C193.316 398.992 221.486 392.085 241.955 385.762C247.987 383.9 253.346 382.09 257.655 380.566C260.68 379.505 263.186 378.578 265.048 377.874C267.325 377.012 268.647 376.483 268.745 376.436C268.745 376.436 269.719 380.32 268.818 383.562C267.916 386.804 269.764 386.842 268.862 389.627Z" fill="url(#paint1_linear)"/>
<path d="M268.316 379.83C266.979 382.766 259.446 387.784 241.639 393.087C231.953 395.908 222.1 398.236 212.122 400.06C197.52 402.859 182.513 403.556 167.666 402.128C151.079 400.477 139.658 396.446 136.346 394.299C133.212 392.265 132.65 390.661 132.842 389.62C132.922 389.099 133.196 388.619 133.619 388.254H133.685C134.365 388.46 140.789 390.149 178.732 392.835C200.761 394.392 224.717 388.194 242.023 382.177C250.394 379.32 258.558 375.999 266.468 372.233C267.116 372.855 267.649 373.563 268.051 374.335C268.417 374.999 268.667 375.71 268.79 376.443C268.988 377.589 268.824 378.763 268.316 379.83Z" fill="#5897CE"/>
<path d="M144.69 236.111C140.669 237.617 118.685 248.778 118.685 248.778C107.597 228.622 106.547 213.117 106.57 207.834C106.57 206.555 106.644 205.846 106.644 205.846L110.014 203.857L120.127 197.892C120.127 197.892 144.21 210.657 149.347 218.546C154.485 226.435 148.741 234.6 144.69 236.111Z" fill="#F8AD88"/>
<path d="M132.674 224.53C132.674 224.53 136.983 218.876 141.7 219.586C146.416 220.295 146.97 225.446 146.098 230.509C145.226 235.573 136.71 237.091 128.401 241.188C120.093 245.284 117.261 250.249 117.261 250.249C117.261 250.249 148.308 240.1 148.907 235.665C149.506 231.231 152.655 219.334 147.576 217.299C142.498 215.263 136.377 214.402 134.012 217.365C131.646 220.328 132.674 224.53 132.674 224.53Z" fill="#D27358"/>
<path d="M133.62 221.927C131.166 223.676 131.048 231.664 131.048 231.664C130.066 229.326 129.372 226.9 128.978 224.425C128.35 220.396 124.787 212.494 119.627 211.461C115.887 210.718 109.7 208.809 106.573 207.815C106.573 206.536 106.647 205.826 106.647 205.826L110.018 203.838C116.419 202.685 126.228 203.081 126.228 203.081C126.228 203.081 136.074 220.204 133.62 221.927Z" fill="#D27358"/>
<path d="M257.664 380.613C252.601 383.099 247.341 385.249 241.926 387.043C236.752 388.832 230.483 390.782 222.921 392.889C213.979 395.379 204.753 396.953 195.416 397.582C187.688 398.098 179.926 397.998 172.219 397.283H172.13C171.278 397.205 170.435 397.117 169.602 397.025L169.107 396.965H169.033C166.89 396.717 164.822 396.44 162.831 396.13H162.75C145.704 393.48 134.616 388.74 133.692 388.336H133.625L130.328 332.185C130.328 332.185 130.794 273.304 137.491 251.424C138.689 247.519 140.078 244.795 141.705 243.793C152.438 237.166 242.976 243.793 252.584 259.63C259.313 270.687 263.414 321.229 265.277 350.732C265.565 355.285 265.796 359.349 266.017 362.664C266.239 366.752 266.387 369.756 266.453 371.279C266.453 371.943 266.505 372.34 266.505 372.34C266.594 372.461 268.123 375.291 257.664 380.613Z" fill="#5897CE"/>
<path d="M150.723 230.853C150.723 231.517 150.723 232.18 150.686 232.809L150.642 233.883L144.691 236.111C148.062 233.373 150.605 218.976 142.607 218.114C142.027 218.055 141.442 218.055 140.862 218.114C134.106 218.777 131.371 227.48 131.371 227.48L126.388 208.767C126.388 208.767 120.475 210.06 106.644 205.884C92.8138 201.708 86.8927 188.889 87.3881 180.245C87.8833 171.602 96.3841 170.892 98.476 173.192C100.568 175.493 104.9 180.245 104.9 180.245C104.475 178.437 104.403 176.574 104.685 174.743C104.826 173.517 105.033 172.384 105.21 171.549C120.688 176.861 133.604 186.862 141.72 199.819C142.513 201.074 143.252 202.358 143.937 203.67C148.117 211.571 150.42 220.164 150.701 228.905C150.716 229.555 150.723 230.204 150.723 230.853Z" fill="url(#paint2_linear)"/>
<path d="M153.591 211.479C155.411 217.124 156.405 222.958 156.548 228.832C156.548 229.335 156.548 229.84 156.548 230.35C156.548 230.86 156.548 231.238 156.548 231.676" stroke="#231F20" stroke-miterlimit="10"/>
<path d="M156.54 230.352C156.54 231.869 150.686 232.81 150.686 232.81C151.861 223.756 146.014 208.052 146.014 208.052C132.893 179.709 105.188 171.55 105.188 171.55C99.0961 169.462 92.7095 168.145 86.2125 167.639C87.5363 165.884 88.9574 164.189 90.4702 162.562C102.734 164.047 114.411 168.184 124.495 174.617C134.578 181.051 142.765 189.586 148.35 199.489C149.05 200.723 149.705 201.977 150.316 203.254C151.61 205.928 152.704 208.676 153.591 211.48C155.579 217.049 156.518 228.834 156.54 230.352Z" fill="#4A79A2"/>
<path d="M156.519 231.683C156.519 232.04 156.519 232.398 156.519 232.749C156.076 244.749 152.094 256.429 144.98 266.602H144.914C142.807 266.602 140.715 266.521 138.653 266.35C145.919 256.723 150.078 245.483 150.672 233.871L156.519 231.683Z" stroke="#231F20" stroke-miterlimit="10"/>
<path opacity="0.4" d="M141.699 199.821C138.328 195.982 132.001 187.479 127.765 184.409C125.784 180.518 124.187 173.837 121.378 171.55C113.949 165.512 113.247 159.347 113.247 159.347L132.148 165.313L141.699 199.821Z" fill="#4A79A1"/>
<path d="M210.222 178.716C193.788 192.537 172.757 201.151 150.347 203.24C148.233 203.44 146.101 203.579 143.953 203.658C143.502 202.811 143.036 201.968 142.541 201.147C142.282 200.696 142.009 200.251 141.728 199.821C143.945 199.774 146.163 199.669 148.38 199.489C170.872 197.74 192.102 189.42 208.811 175.806C208.973 176.104 209.128 176.408 209.276 176.714C209.586 177.369 209.912 178.045 210.222 178.716Z" fill="#C1E2FF"/>
<path d="M215.273 209.649C215.094 211.187 214.849 212.707 214.532 214.209C197.735 225.573 177.459 232.05 156.432 232.77C155.072 232.816 153.704 232.844 152.329 232.844H150.629C150.629 232.18 150.666 231.517 150.666 230.887C150.666 230.258 150.666 229.562 150.629 228.939C151.117 228.939 151.605 228.939 152.108 228.939C153.586 228.939 155.042 228.911 156.476 228.853C177.823 228.079 198.372 221.368 215.273 209.649Z" fill="#51AEFF"/>
<path d="M133.618 230.35C133.618 230.35 135.703 224.445 139.391 222.575C143.08 220.706 145.172 223.297 144.854 226.824C144.854 226.824 143.893 223.582 141.084 224.59C138.275 225.598 133.618 230.35 133.618 230.35Z" fill="#D27358"/>
<path d="M111.672 209.789C111.525 210.023 111.442 210.287 111.43 210.556C111.417 210.825 111.476 211.092 111.6 211.339C111.725 211.583 111.912 211.798 112.146 211.968C112.381 212.135 112.657 212.253 112.951 212.307C115.205 212.73 117.345 213.546 119.249 214.707C122.708 216.954 123.174 217.087 122.716 214.845C122.257 212.605 119.308 210.133 116.44 209.272C114.385 208.669 112.522 208.503 111.672 209.789Z" fill="url(#paint3_linear)"/>
<path d="M114.019 216.963C114.493 215.487 114.256 214.127 113.491 213.932C112.726 213.734 111.722 214.772 111.248 216.248C110.774 217.727 111.011 219.084 111.776 219.282C112.541 219.479 113.545 218.441 114.019 216.963Z" fill="#01010B"/>
<path d="M126.913 240.016C126.445 240.659 125.771 241.159 124.979 241.452C124.187 241.744 123.315 241.814 122.478 241.653C120.393 241.368 117.902 240.042 115.478 237.311C115.478 237.311 121.709 233.534 123.173 230.511C123.881 231.414 124.537 232.351 125.139 233.314C126.566 235.534 127.97 238.498 126.913 240.016Z" fill="#7A2B18"/>
<path d="M126.915 240.016C126.447 240.659 125.773 241.159 124.981 241.45C124.189 241.744 123.317 241.814 122.48 241.653C122.071 240.175 122.101 238.629 122.568 237.164C123.035 235.702 123.922 234.374 125.141 233.314C126.568 235.534 127.972 238.498 126.915 240.016Z" fill="#EE7671"/>
<path opacity="0.65" d="M195.416 397.582C159.882 399.988 133.618 388.303 133.618 388.303L130.321 332.152C130.321 332.152 130.787 273.271 137.484 251.39C143.812 259.469 162.048 284.956 158.5 306.281C154.257 331.768 160.784 384.324 195.416 397.582Z" fill="#4A79A1"/>
<path d="M131.743 356.087C131.743 356.087 147.562 334.796 152.197 304.027L148.501 285.547L131.219 346.934L131.743 356.087Z" fill="#4A79A1"/>
<path d="M166.847 236.111C118.252 257.553 89.0089 293.705 77.1743 310.581C74.1582 314.883 72.2807 317.933 71.4971 319.158C67.6459 325.204 63.1515 323.766 62.1831 319.158C61.2149 314.552 64.7556 309.077 87.3679 276.83C100.607 257.944 121.371 245.934 136.362 239.226C142.241 236.534 148.34 234.247 154.606 232.386C162.9 227.401 166.847 236.111 166.847 236.111Z" fill="url(#paint4_linear)"/>
<path opacity="0.65" d="M266.419 371.201C256.263 377.306 219.398 389.76 200.024 390.011C178.313 390.291 157.541 379.353 157.349 373.056C157.157 366.759 145.418 301.541 145.418 301.541C150.134 234.203 247.029 331.675 265.281 350.678C265.916 360.833 266.279 368.496 266.419 371.201Z" fill="#4A79A2"/>
<path opacity="0.29" d="M166.847 236.111C118.251 257.555 89.0086 293.706 77.174 310.583C84.7509 298.34 107.481 262.585 119.841 253.704C134.802 242.932 136.347 239.247 136.347 239.247C142.226 236.555 148.325 234.268 154.591 232.405C162.899 227.401 166.847 236.111 166.847 236.111Z" fill="#4A79A1"/>
<path d="M74.4519 328.321L72.4414 329.308L59.52 335.472C54.22 327.697 56.3931 326.617 56.8738 319.279C57.1694 314.725 59.9858 312.65 62.0482 311.762C62.7705 311.439 63.543 311.215 64.3397 311.1C64.2878 311.205 63.6004 312.697 64.5467 315.826C65.5149 319.079 67.2003 318.636 71.4508 319.212C75.7011 319.789 74.4519 328.321 74.4519 328.321Z" fill="#4A79A2"/>
<path opacity="0.65" d="M72.4414 329.308L59.52 335.472C54.22 327.697 56.3931 326.615 56.8738 319.279C57.1694 314.724 59.9858 312.65 62.0482 311.762C62.2033 314.088 62.8242 319.219 65.3006 320.088C68.5236 321.22 72.9735 319.06 73.4318 323.918C73.6602 325.763 73.3174 327.627 72.4414 329.308Z" fill="#5897CE"/>
<path d="M91.3136 366.759C91.3136 366.759 90.4044 375.263 82.4431 372.459C82.1844 372.373 81.9184 372.267 81.6449 372.155C72.974 368.489 63.3421 350.128 59.9714 339.98C58.7074 336.188 59.3061 333.351 60.7845 331.362C63.2461 327.989 68.1766 326.802 71.052 326.802C75.6278 326.802 84.2985 336.746 84.2985 336.746L91.3136 366.759Z" fill="#51AEFF"/>
<path d="M187.575 379.876C177.573 382.727 139.282 383.728 117.786 381.534C112.818 381.024 108.753 380.348 106.136 379.486C105.592 379.297 105.063 379.076 104.554 378.822C101.597 377.365 101.309 375.899 102.462 374.521C103.844 372.864 107.363 371.325 111.052 370.093C114.664 368.919 118.349 367.934 122.088 367.144C122.088 367.144 124.483 367.474 128.504 367.806C136.841 368.512 145.223 368.676 153.586 368.297C160.268 368.009 166.913 367.231 173.455 365.977L187.575 379.876Z" fill="url(#paint5_linear)"/>
<path d="M120.935 369.132C109.847 387.029 86.0152 378.412 81.6761 372.155C80.1165 369.908 80.0278 364.698 80.5378 358.949C81.3441 351.489 82.6101 344.073 84.3299 336.739C84.3299 336.739 87.2202 331.343 95.418 294.196C103.616 257.05 135.394 248.778 135.394 248.778C137.07 249.07 138.655 249.687 140.036 250.587C146.312 254.658 148.094 264.507 148.907 278.215C149.831 294.839 132.009 351.181 120.935 369.132Z" fill="#51AEFF"/>
<path opacity="0.65" d="M84.9733 363.234L82.4748 372.461C82.2162 372.373 81.9501 372.268 81.6765 372.155C73.0057 368.489 63.3738 350.128 60.0031 339.98C58.7391 336.188 59.3379 333.351 60.8162 331.362C63.1595 340.331 76.6204 357.036 76.6204 357.036L84.9733 363.234Z" fill="#5897CE"/>
<path opacity="0.65" d="M120.935 369.132C109.847 387.029 86.0152 378.412 81.6761 372.155C80.1165 369.908 80.0278 364.698 80.5378 358.951C92.3651 363.922 107.06 362.795 117.261 335.446C128.63 304.955 137.486 251.371 137.486 251.371C138.226 250.889 139.108 250.618 140.022 250.588C146.297 254.658 148.079 264.508 148.892 278.215C149.831 294.84 132.009 351.183 120.935 369.132Z" fill="#5897CE"/>
<path opacity="0.29" d="M187.575 379.878C174.727 383.543 115.199 384.146 104.554 378.85C101.597 377.391 101.309 375.927 102.462 374.549C109.4 375.209 116.376 375.499 123.352 375.417C142.483 375.225 153.253 368.536 153.586 368.33L172.066 364.624L173.478 366.017L187.575 379.878Z" fill="#5897CE"/>
<path opacity="0.65" d="M128.505 367.839C128.396 368.381 128.225 368.912 127.995 369.422C126.553 372.592 123.5 372.737 122.007 376.476C121.312 378.225 119.509 380.068 117.786 381.534C112.819 381.022 108.753 380.346 106.137 379.484L111.045 370.119C114.657 368.943 118.342 367.96 122.081 367.17C122.081 367.17 124.484 367.5 128.505 367.839Z" fill="#5897CE"/>
<path d="M104.553 380.652C98.772 379.857 91.3134 378.127 91.3134 378.127C91.3134 378.127 82.406 377.622 78.4513 367.09C77.2939 363.838 76.6762 360.454 76.618 357.041C75.8789 336.739 84.3281 336.739 84.3281 336.739C84.3281 336.739 81.5116 348.006 82.3986 356.961C82.5485 358.824 82.9533 360.663 83.6036 362.437C87.0779 371.339 104.553 380.652 104.553 380.652Z" fill="#51AEFF"/>
<path opacity="0.29" d="M104.554 380.652C98.7736 379.857 91.315 378.127 91.315 378.127C91.315 378.127 82.4076 377.622 78.4529 367.09C78.4529 367.09 76.2352 354.662 79.9313 349.916C80.5693 352.31 81.3843 354.663 82.3707 356.961C82.5206 358.824 82.9252 360.663 83.5756 362.437C87.0795 371.339 104.554 380.652 104.554 380.652Z" fill="#5897CE"/>
<path opacity="0.65" d="M106.425 281.457L109.168 280.27C117.603 284.35 126.827 286.953 136.348 287.94L133.095 301.541H130.324L106.425 281.457Z" fill="#5897CE"/>
<path d="M111.917 305.213L114.445 304.027L126.472 307.156L117.439 329.182H114.586L111.917 305.213Z" fill="#5897CE"/>
<path d="M116.804 375.045C116.804 375.111 116.768 377.391 111.918 379.843C111.294 380.133 110.623 380.335 109.93 380.44C102.856 381.674 85.5361 378.013 81.441 361.158C76.8652 342.366 84.3311 336.751 84.3311 336.751C83.2002 340.106 84.0355 344.215 85.7283 348.338L85.9205 348.796C86.1718 349.399 86.4454 350.002 86.741 350.598C86.9628 351.069 87.1919 351.546 87.4432 352.03C88.8891 354.759 90.5007 357.414 92.2703 359.984C92.2725 360.003 92.2725 360.02 92.2703 360.038C92.5881 360.501 92.8986 360.945 93.2016 361.364C94.3309 362.846 95.7127 364.161 97.2969 365.26C97.9547 365.737 98.6495 366.216 99.374 366.679L99.4479 366.719C106.751 371.353 116.804 375.045 116.804 375.045Z" fill="white"/>
<path opacity="0.65" d="M152.387 232.824C152.387 232.824 147.042 243.668 138.623 246.69C130.203 249.713 120.291 256.242 120.291 256.242C120.291 256.242 135.607 246.783 141.217 253.704C146.828 260.623 158.648 249.514 158.818 241.188C158.988 232.863 154.597 232.4 154.597 232.4L152.387 232.824Z" fill="#5897CE"/>
<path d="M210.524 178.874C194.09 192.694 173.06 201.31 150.649 203.399C148.535 203.599 146.403 203.737 144.255 203.817C143.804 202.968 143.338 202.126 142.843 201.304C152.748 200.642 174.348 198.263 190.3 189.883C200.28 184.641 206.149 180.153 209.579 176.859C209.888 177.514 210.214 178.178 210.524 178.874Z" fill="#5897CE"/>
<path opacity="0.56" d="M116.801 375.045C116.801 375.111 116.764 377.391 111.915 379.844C111.29 380.133 110.619 380.335 109.926 380.44C105.494 380.257 101.175 379.128 97.3291 377.145C93.4832 375.162 90.2216 372.382 87.8166 369.04C79.3896 357.485 83.6104 342.796 83.6104 342.796C83.6104 342.796 84.3497 345.104 85.7247 348.338L85.9169 348.796C86.1682 349.399 86.4416 350.002 86.7372 350.599C86.959 351.069 87.1883 351.546 87.4396 352.03C88.7935 354.8 90.4084 357.461 92.2665 359.984C92.2689 360.003 92.2689 360.02 92.2665 360.038C93.6867 361.969 95.3761 363.728 97.2931 365.274C97.9448 365.793 98.6391 366.267 99.3702 366.693L99.4443 366.733C106.748 371.353 116.801 375.045 116.801 375.045Z" fill="#5897CE"/>
<path opacity="0.4" d="M166.483 178.252C166.483 178.252 162.824 186.656 170.771 194.212C178.717 201.769 183.736 203.95 184.734 212.501C185.732 221.052 200.147 228.713 208.092 226.148C216.04 223.583 182.221 232.823 182.221 232.823L155.048 185.019L166.483 178.252Z" fill="#5897CE"/>
<path opacity="0.4" d="M215.665 203.141C215.665 205.342 215.539 207.509 215.303 209.651C215.125 211.188 214.878 212.709 214.563 214.211C213.023 222.117 209.807 229.686 205.095 236.509C191.226 238.125 175.489 232.889 182.992 227.038C193.519 218.831 198.005 187.863 186.222 177.588C177.352 169.879 178.091 154.66 179.023 147.535C191.986 153.946 202.393 163.83 208.782 175.806C209.294 176.759 209.773 177.734 210.225 178.715C213.828 186.453 215.676 194.756 215.665 203.141Z" fill="#5897CE"/>
<path d="M270.971 252.523C268.058 256.501 254.013 261.73 239.746 264.912C228.57 267.404 217.252 268.644 211.036 267.045C210.182 266.832 209.362 266.523 208.597 266.125C204.029 263.633 200.465 255.36 198.846 245.483C196.495 231.392 198.012 214.045 205.943 205.66C219.434 191.408 211.753 182.314 197.996 175.832C184.241 169.348 187.885 156.88 186.908 145.221C185.932 133.561 182.576 135.278 175.953 132.043C169.33 128.809 172.701 115.631 159.942 99.6565C159.255 98.8014 158.582 98.0125 157.91 97.2834C157.237 96.5543 156.749 96.0638 156.187 95.5203C145.321 85.1068 137.374 90.6948 135.859 82.0314C134.174 72.4 113.794 71.724 113.794 71.724C113.794 71.724 104.546 72.8773 103.829 69.2118C103.541 67.7534 104.362 67.0774 105.884 66.9515C108.183 66.7526 112.057 67.78 116.108 69.2118C122.849 71.598 137.544 73.0894 149.823 74.3156C162.101 75.542 162.833 78.7038 162.833 87.3473C162.833 95.991 171.26 106.782 195.912 108.505C217.416 110.017 220.756 118.448 217.474 125.852C216.984 126.959 216.375 128.02 215.656 129.021C213.815 131.599 212.61 134.065 212.419 136.412C212.353 136.944 212.353 137.483 212.419 138.016C212.965 142.284 217.342 146.136 228.068 149.516C245.889 155.13 233.848 168.739 231.926 178.888C230.004 189.035 238.667 183.208 248.78 200.702C258.893 218.195 261.842 206.522 272.376 217.286C282.909 228.051 276.507 244.961 270.971 252.523Z" fill="url(#paint6_linear)"/>
<path opacity="0.18" d="M251.217 242.341V256.188C247.624 259.33 243.79 262.246 239.746 264.912C232.56 269.651 223.402 274.144 216.75 272.388C215.197 271.978 213.253 270.075 211.034 267.045C207.502 262.214 203.281 254.532 198.846 245.483C196.495 231.392 198.01 214.043 205.942 205.659C219.432 191.408 211.753 182.314 197.996 175.832C184.239 169.348 187.883 156.88 186.907 145.22C185.932 133.561 182.576 135.278 175.952 132.043C169.329 128.808 172.7 115.631 159.941 99.6561C159.254 98.8011 158.581 98.0122 157.908 97.2831C163.585 101.114 169.226 108.26 172.035 115.843C175.937 126.449 183.781 124.46 198.461 138.028C213.142 151.597 204.248 173.504 212.196 176.506C220.142 179.51 221.59 192.07 220.866 201.357C220.142 210.643 227.609 220.148 239.634 223.384C251.662 226.618 251.217 242.341 251.217 242.341Z" fill="#354E4C"/>
<path d="M111.175 375.396C106.296 375.237 100.789 372.777 95.9916 368.708C87.6386 361.654 81.4219 349.762 84.327 336.739C84.7526 338.442 85.2831 340.123 85.9162 341.776C89.3609 350.956 99.0148 369.45 120.932 369.125C120.932 369.132 124.54 375.826 111.175 375.396Z" fill="#51AEFF"/>
<path d="M106.425 281.457C114.778 285.853 124.022 288.716 133.62 289.882L130.323 301.541C130.323 301.541 115.724 299.24 107.408 295.137C105.855 294.37 104.625 293.168 103.904 291.716C103.184 290.263 103.012 288.639 103.416 287.091C104.089 284.498 105.131 281.689 106.425 281.457Z" fill="#51AEFF"/>
<path d="M111.916 305.214L104.553 325.078L114.584 329.182L123.351 308.455L111.916 305.214Z" fill="#EE7671"/>
<path d="M208.62 268.936C201.116 273.005 173.877 271.123 159.093 262.01C158.206 261.467 157.356 260.888 156.565 260.292C142.564 249.687 152.987 245.179 154.621 232.4C156.254 219.621 137.212 208.901 134.802 187.021C132.393 165.14 112.523 165.71 111.658 155.125C111.585 154.216 111.459 153.311 111.281 152.414C111.104 151.532 110.882 150.664 110.616 149.815C110.512 149.477 110.401 149.152 110.29 148.828C109.412 146.296 108.169 143.879 106.594 141.636C104.089 138.122 101.42 136.22 100.37 137.261C99.3207 138.302 99.9712 139.813 100.806 141.589C100.817 141.612 100.829 141.634 100.843 141.656C101.782 143.644 103.024 145.825 102.898 147.734C102.662 151.406 97.1178 149.139 96.6374 142.431C96.1569 135.723 94.2275 119.324 87.3751 111.337C80.5227 103.349 76.6197 94.6594 76.3831 87.5337C76.2797 84.4581 77.2037 82.3834 78.4898 82.0586C80.1754 81.6145 82.4817 84.1864 83.8491 91.4248C85.9781 102.726 99.2985 109.607 102.277 111.018L102.869 111.29C112.989 114.094 106.24 111.502 119.871 113.882C133.502 116.262 134.152 122.95 130.293 127.053C126.435 131.156 133.184 129.645 131.498 136.77C131.32 137.502 131.202 138.244 131.144 138.991C130.663 144.957 134.448 150.531 148.884 156.689C149.675 157.027 150.496 157.352 151.353 157.71C169.759 165.054 167.15 176.27 165.221 186.001C163.291 195.731 175.57 196.606 178.231 209.644C180.892 222.682 189.785 222.582 208.826 230.345C227.868 238.106 216.544 264.615 208.62 268.936Z" fill="url(#paint7_linear)"/>
<path opacity="0.18" d="M203.445 251.369L159.092 262.008C158.205 261.465 157.355 260.888 156.564 260.292C142.563 249.687 152.986 245.179 154.62 232.398C156.254 219.619 137.212 208.901 134.802 187.021C132.392 165.139 112.522 165.71 111.657 155.124C111.584 154.215 111.458 153.31 111.28 152.413C114.097 160.234 122.908 160.745 132.813 167.148C143.724 174.201 148.388 182.155 144.885 193.999C141.381 205.845 159.95 224.445 178.252 229.131C196.555 233.817 203.445 251.369 203.445 251.369Z" fill="#4A79A2"/>
<path d="M276.508 361.789C271.23 367.27 224.166 381.714 203.526 385.06C201.229 385.469 198.896 385.691 196.556 385.724C183.066 385.505 165.088 375.377 165.088 375.377C165.088 375.377 144.457 256.295 139.918 250.522C139.918 250.522 138.218 247.997 141.567 249.488C141.567 249.488 175.962 265.277 191.381 266.119C192.141 266.165 192.905 266.165 193.665 266.119C207.629 265.256 273.617 249.481 273.617 249.481C273.617 249.481 281.801 291.606 281.062 332.423C281.062 332.423 282.539 355.53 276.508 361.789Z" fill="url(#paint8_linear)"/>
<path d="M203.526 385.067C201.229 385.476 198.896 385.698 196.556 385.731C183.066 385.511 165.088 375.384 165.088 375.384C165.088 375.384 144.457 256.295 139.918 250.522C139.918 250.522 138.218 247.997 141.567 249.488C141.567 249.488 175.962 265.277 191.381 266.119C191.381 266.119 209.056 365.148 203.526 385.067Z" fill="url(#paint9_linear)"/>
<path d="M106.749 307.759C108.156 303.545 107.731 299.706 105.8 299.187C103.867 298.668 101.16 301.667 99.7525 305.881C98.3447 310.097 98.7698 313.934 100.702 314.453C102.634 314.972 105.341 311.975 106.749 307.759Z" fill="#CEEBE9"/>
<path d="M206.904 280.27L270.971 267.418L272.376 287.243L209.314 301.541L206.904 280.27Z" fill="#C1E2FF"/>
<path opacity="0.65" d="M270.969 267.418L266.994 266.125L203.414 278.654L206.187 300.893L209.314 301.541L206.904 280.27L270.969 267.418Z" fill="#4A79A2"/>
<path d="M230.055 367.018C228.794 367.168 227.511 367.083 226.288 366.763C225.067 366.445 223.932 365.9 222.959 365.166C221.985 364.432 221.192 363.524 220.632 362.498C220.072 361.474 219.756 360.356 219.706 359.215L216.75 319.722C216.579 317.334 217.409 314.973 219.079 313.106C220.749 311.238 223.137 309.997 225.775 309.627C227.036 309.477 228.318 309.562 229.541 309.882C230.763 310.2 231.898 310.743 232.872 311.479C233.845 312.213 234.637 313.121 235.198 314.145C235.758 315.171 236.073 316.289 236.124 317.43L239.081 356.923C239.253 359.311 238.422 361.672 236.752 363.539C235.082 365.407 232.694 366.648 230.055 367.018Z" fill="#28383B"/>
<path d="M232.274 364.553C231.121 364.691 229.95 364.612 228.832 364.32C227.715 364.03 226.679 363.532 225.787 362.863C224.896 362.192 224.171 361.362 223.658 360.426C223.145 359.491 222.855 358.469 222.806 357.426L220.115 321.354C219.944 319.162 220.695 316.992 222.222 315.272C223.752 313.555 225.942 312.412 228.365 312.075C229.518 311.935 230.692 312.014 231.809 312.304C232.928 312.596 233.966 313.092 234.857 313.763C235.749 314.435 236.473 315.265 236.986 316.204C237.498 317.14 237.788 318.164 237.833 319.207L240.51 355.305C240.674 357.49 239.919 359.652 238.395 361.364C236.871 363.075 234.688 364.212 232.274 364.553Z" fill="#EE7671"/>
<path d="M266.279 356.021C265.136 356.157 263.975 356.079 262.87 355.79C261.764 355.502 260.737 355.009 259.855 354.345C258.972 353.681 258.255 352.86 257.747 351.932C257.239 351.006 256.953 349.995 256.904 348.962L254.251 313.228C254.101 311.074 254.852 308.947 256.358 307.263C257.862 305.58 260.013 304.459 262.389 304.12C263.531 303.983 264.691 304.06 265.796 304.349C266.902 304.635 267.929 305.128 268.809 305.792C269.692 306.456 270.409 307.277 270.915 308.203C271.423 309.131 271.71 310.141 271.755 311.173L274.41 346.881C274.567 349.039 273.821 351.172 272.317 352.862C270.813 354.553 268.66 355.679 266.279 356.021Z" fill="#28383B"/>
<path d="M268.229 353.786C267.185 353.912 266.124 353.84 265.113 353.578C264.102 353.315 263.164 352.866 262.357 352.257C261.552 351.651 260.894 350.9 260.431 350.053C259.966 349.205 259.703 348.281 259.662 347.337L257.237 314.673C257.099 312.697 257.789 310.747 259.168 309.202C260.548 307.658 262.523 306.631 264.702 306.321C265.745 306.195 266.806 306.267 267.819 306.529C268.829 306.793 269.768 307.242 270.575 307.85C271.38 308.456 272.036 309.208 272.5 310.055C272.965 310.902 273.226 311.827 273.27 312.77L275.694 345.435C275.833 347.411 275.143 349.361 273.763 350.905C272.382 352.45 270.409 353.477 268.229 353.786Z" fill="#EE7671"/>
<path d="M64.8723 53.6547C62.455 55.9946 57.5394 60.5285 49.349 59.6205C46.1737 59.206 43.1184 58.2424 40.3529 56.7835L39.8428 56.5315C30.9723 51.8916 18.4872 36.5002 9.91984 23.7933C9.11166 22.6003 8.34287 21.4337 7.61351 20.2935C7.61351 20.2935 7.56178 20.214 7.53222 20.1743C3.74749 14.2749 1.07156 9.33663 0.406276 6.91722C-0.96125 2.0519 1.52247 0.567113 3.57007 0.142889C4.65529 -0.0751466 5.7844 -0.0432218 6.85213 0.235688C12.7573 1.71385 18.5019 3.66611 24.0165 6.06877C24.081 6.0922 24.1428 6.12104 24.2013 6.15494C43.0362 14.3677 56.4824 26.1199 63.8669 31.688C64.0665 31.847 64.2735 31.9995 64.4657 32.1386L64.5693 32.2183C73.7797 39.1981 68.1027 50.5328 64.8723 53.6547Z" fill="url(#paint10_linear)"/>
<path opacity="0.15" d="M64.571 32.2385L58.99 30.7073C49.0248 20.8213 37.2563 12.5277 24.1883 6.18182C43.038 14.368 56.4841 26.1203 63.8688 31.6883C64.0684 31.8473 64.2754 31.9998 64.4676 32.1391L64.571 32.2385Z" fill="#43675E"/>
<path opacity="0.15" d="M49.3577 59.6467C46.1824 59.2322 43.1273 58.2686 40.3617 56.8095L39.8517 56.5578C30.9812 51.9178 18.4961 36.5264 9.92865 23.8195C10.727 24.7277 36.5844 53.7605 46.5119 57.9099C47.5652 58.3373 48.528 58.9249 49.3577 59.6467Z" fill="#43675E"/>
<path d="M64.8753 53.6555C61.6672 56.751 54.0903 63.7043 40.3633 56.8106C36.4824 51.806 37.569 43.8055 43.3866 37.6343C49.2041 31.4633 57.7273 29.183 63.8699 31.7084C64.0695 31.8676 64.2765 32.0199 64.4687 32.1592C73.827 39.1124 68.1204 50.5202 64.8753 53.6555Z" fill="#354E4C"/>
<path d="M63.6386 52.973C69.2002 47.0695 69.5826 39.1582 64.493 35.3028C59.4032 31.4474 50.7687 33.1076 45.2074 39.0111C39.6458 44.9146 39.2632 52.8257 44.353 56.6813C49.4426 60.5367 58.0771 58.8765 63.6386 52.973Z" fill="#1B232A"/>
<path d="M32.4737 63.7568C32.0302 63.4121 14.5332 49.5254 25.2666 38.4492L34.0039 46.821L35.8889 48.6304C35.8889 48.6304 29.783 53.993 32.4737 63.7568Z" fill="#51AEFF"/>
<path d="M72.5311 25.902C61.5465 23.8606 55.7954 29.5345 55.7954 29.5345L53.7774 27.9769L44.042 20.4203C55.9729 10.3715 72.1319 25.5243 72.5237 25.902H72.5311Z" fill="#51AEFF"/>
<path d="M25.6353 27.8177C29.8483 27.8177 33.2637 24.755 33.2637 20.9772C33.2637 17.1991 29.8483 14.1365 25.6353 14.1365C21.4221 14.1365 18.0067 17.1991 18.0067 20.9772C18.0067 24.755 21.4221 27.8177 25.6353 27.8177Z" fill="white"/>
<path d="M167.658 513.322C167.658 513.388 167.658 513.46 167.658 513.533C167.496 516.703 162.484 521.016 155.942 523.901C149.4 526.784 127.682 526.922 122.545 520.878C120.327 518.226 119.758 516.026 119.854 514.356C119.885 513.121 120.342 511.926 121.162 510.935C121.162 510.935 125.597 512.102 136.028 515.263C146.458 518.425 166.853 508.933 166.853 508.933C166.853 508.933 167.769 510.299 167.658 513.322Z" fill="white"/>
<path opacity="0.56" d="M167.659 513.322C161.568 517.167 148.876 520.866 137.729 520.302C123.987 519.599 120.084 514.667 119.847 514.337C119.878 513.103 120.335 511.908 121.156 510.916C121.156 510.916 125.591 512.083 136.021 515.245C146.451 518.406 166.846 508.915 166.846 508.915C166.846 508.915 167.77 510.299 167.659 513.322Z" fill="#E5EDEC"/>
<path d="M120.515 501.589C120.515 501.589 127.996 509.357 142.772 510.365C157.549 511.374 168.955 503.378 168.955 503.378C168.955 503.378 172.651 507.198 163.322 511.95C153.994 516.703 146.786 519.294 133.621 516.589C120.456 513.886 116.885 508.071 120.515 501.589Z" fill="#D3D7DA"/>
<path d="M119.84 451.496L122.221 450.224C122.897 449.864 123.659 449.649 124.444 449.599C125.229 449.548 126.017 449.663 126.745 449.932C138.277 454.07 150.472 456.532 162.869 457.224C163.315 457.248 163.75 457.355 164.146 457.538C164.543 457.722 164.891 457.978 165.17 458.291C165.449 458.604 165.651 458.966 165.764 459.352C165.877 459.74 165.898 460.143 165.826 460.538L162.3 480.437C162.168 481.18 161.827 481.879 161.31 482.471C160.792 483.061 160.116 483.526 159.343 483.818L155.766 485.142L119.84 451.496Z" fill="#354E4C"/>
<path d="M174.557 622.081C173.817 623.222 160.371 625.443 151.146 626.311H150.976C150.673 626.349 150.458 626.363 150.333 626.37H150.222L153.918 626.98C150.464 627.429 146.984 627.698 143.495 627.789C137.944 627.789 134.425 627.033 133.745 625.528C133.442 624.866 133.679 624.083 134.484 623.149C137.249 620.047 145.853 616.327 145.18 612.304C144.929 610.866 141.788 598.763 137.715 582.933C137.715 582.933 138.247 582.999 139.193 583.086C143.296 583.445 155.249 584.088 166.1 580.647C168.788 579.817 171.356 578.704 173.751 577.333C173.847 577.995 173.928 578.619 174.017 579.262C176.996 602.117 175.48 620.702 174.557 622.081Z" fill="#4A79A2"/>
<path d="M137.708 582.968C137.708 582.968 135.49 582.384 136.466 580.978C137.442 579.573 152.603 581.846 163.44 578.93C174.276 576.014 173.678 573.627 174.875 573.852C176.073 574.078 177.041 575.437 174.646 576.809C172.251 578.18 168.577 586.247 137.708 582.968Z" fill="#E5EDEC"/>
<path opacity="0.56" d="M174.01 579.283C176.967 602.117 175.489 620.704 174.557 622.083C173.773 623.262 159.411 625.602 150.163 626.404C155.944 622.242 162.279 614.758 160.956 602.316C158.62 580.244 144.508 541.461 152.159 495.558C159.81 449.655 182.695 414.551 182.695 414.551L202.173 414.364L220.091 412.596C220.091 412.596 167.816 500.576 166.847 508.941C165.879 517.305 170.063 552.133 173.596 576.319C173.744 577.307 173.877 578.294 174.01 579.283Z" fill="#C1E2FF"/>
<path d="M25.6366 25.8091C28.6128 25.8091 31.0254 23.6457 31.0254 20.977C31.0254 18.3081 28.6128 16.1447 25.6366 16.1447C22.6605 16.1447 20.2478 18.3081 20.2478 20.977C20.2478 23.6457 22.6605 25.8091 25.6366 25.8091Z" fill="#1B232A"/>
<path d="M24.1877 6.18194C12.5821 8.17049 8.76046 14.978 7.59991 20.3007C7.59991 20.3007 7.54817 20.2211 7.51861 20.1814C3.73388 14.282 1.05795 9.34373 0.392666 6.92434C-0.974862 2.059 1.50886 0.574224 3.55646 0.149999C4.64168 -0.0680359 5.77078 -0.0361112 6.83852 0.242798C12.7437 1.72096 18.4884 3.67321 24.0029 6.07588L24.1877 6.18194Z" fill="#51AEFF"/>
<path opacity="0.65" d="M200.399 274.165C200.399 274.165 203.177 283.763 198.66 288.947C194.144 294.131 189.945 298.16 195.416 308.381C200.885 318.602 199.718 326.809 190.907 331.701C182.095 336.592 178.34 343.963 184.003 352.733C189.664 361.502 160.451 340.915 164.532 331.296C168.612 321.679 180.609 308.825 180.632 296.736C180.654 284.645 186.22 279.183 186.22 279.183L200.399 274.165Z" fill="#354E4C"/>
<path d="M269.033 343.062C268.37 343.142 267.698 343.097 267.057 342.931C266.415 342.763 265.819 342.478 265.308 342.094C264.798 341.709 264.382 341.233 264.086 340.694C263.793 340.158 263.627 339.571 263.6 338.973L262.061 318.258C261.971 317.004 262.407 315.765 263.285 314.783C264.16 313.801 265.416 313.149 266.801 312.955C267.462 312.877 268.134 312.922 268.775 313.09C269.416 313.258 270.011 313.543 270.522 313.927C271.032 314.311 271.448 314.788 271.744 315.325C272.039 315.861 272.205 316.448 272.234 317.046L273.77 337.759C273.864 339.015 273.428 340.256 272.551 341.236C271.674 342.218 270.418 342.87 269.033 343.062Z" fill="white"/>
<path d="M69.0652 42.8436C66.6174 41.0608 63.4967 40.1931 60.3531 40.4216C57.2097 40.6502 54.2857 41.9573 52.1898 44.0705C50.0941 46.1838 48.9883 48.9406 49.1025 51.7669C49.2165 54.593 50.5421 57.2708 52.8028 59.2425C52.8028 59.2425 62.235 68.6616 88.8834 73.3746C88.8834 73.3746 87.7449 62.5568 71.1424 44.9515C70.5523 44.1729 69.8544 43.4646 69.0652 42.8436Z" fill="url(#paint11_linear)"/>
<path opacity="0.65" d="M235.558 258.627C236.32 261.044 238.105 263.098 240.531 264.355C244.716 266.628 242.794 271.335 250.88 274.165C258.969 276.996 263.802 276.571 260.593 284.484C257.385 292.399 277.861 279.653 272.354 271.56C266.848 263.465 246.319 256.394 245.84 256.241C245.359 256.089 235.551 253.365 235.558 258.627Z" fill="#354E4C"/>
<path d="M64.335 45.144C63.6298 44.5783 62.8071 44.1425 61.9142 43.8619C61.021 43.5811 60.0751 43.4609 59.1303 43.5079C58.1855 43.5551 57.2601 43.7686 56.4074 44.1362C55.5546 44.504 54.7908 45.0188 54.1598 45.6511C53.529 46.2836 53.043 47.0212 52.7299 47.822C52.4168 48.6227 52.2828 49.471 52.3352 50.3183C52.3878 51.1655 52.6259 51.9952 53.0359 52.76C53.4461 53.5246 54.0202 54.2095 54.7254 54.7752C54.7254 54.7752 60.2693 60.3101 75.9184 63.0742C75.9184 63.0742 75.2531 56.7241 65.4956 46.3837C65.168 45.9285 64.778 45.5122 64.335 45.144Z" fill="white"/>
<path d="M167.816 135.907C165.088 141.21 149.336 136.338 144.213 122.517C142.372 117.546 139.837 114.722 137.168 112.648C136.142 111.861 135.071 111.122 133.96 110.434C130.264 108.094 126.649 106.145 124.661 100.922C120.647 90.4158 112.944 91.7082 105.93 88.1089C104.291 87.3033 102.825 86.2441 101.598 84.9804C99.1805 82.4018 99.454 80.1879 99.454 80.1879C100.933 84.5097 109.892 87.1015 116.796 88.3941C123.7 89.6865 124.343 94.3 125.467 98.6218C126.59 102.944 132.689 104.806 146.164 112.727C159.64 120.648 170.543 130.578 167.816 135.907Z" fill="url(#paint12_linear)"/>
<path d="M330.692 284.479C317.926 292.254 326.36 300.893 316.239 305.213C307.577 308.912 304.042 311.465 302.749 315.328C302.529 316.003 302.371 316.693 302.275 317.39C301.537 322.488 289.754 319.922 290.714 312.028C291.624 304.53 298.402 302.205 297.323 295.88C297.269 295.534 297.194 295.191 297.095 294.852C295.046 287.727 288.068 284.685 293.605 277.029C299.143 269.373 297.221 264.62 292.4 264.435C287.581 264.25 289.747 271.952 283.73 274.206C277.712 276.459 276.573 267.802 276.573 267.802C276.573 267.802 274.577 252.107 273.617 249.528L255.987 253.651C255.987 253.651 252.35 253.345 250.392 250.926C249.459 249.786 248.913 248.161 249.29 245.869C249.466 244.868 249.713 243.879 250.028 242.906C251.552 238.007 254.153 236.151 254.153 236.151C254.153 236.151 255.099 235.204 256.697 233.819C261.332 229.802 271.429 222.126 279.664 223.405C290.752 225.135 290.5 229.166 294.596 223.265C296.075 221.191 300.65 218.824 306.105 217.372C316.166 214.688 329.02 215.113 329.989 226.188C331.121 239.565 326.205 243.661 328.629 248.228C328.781 248.516 328.955 248.794 329.153 249.058C330.117 250.316 331.292 251.434 332.636 252.371C336.642 255.341 339.193 260.06 339.886 265.13C340.834 272.163 338.142 279.94 330.692 284.479Z" fill="url(#paint13_linear)"/>
<path d="M305.892 260.941C301.072 273.25 294.331 274.55 296.282 281.457C298.175 288.224 297.392 295.569 297.354 295.873C297.3 295.527 297.224 295.184 297.125 294.846C295.077 287.72 288.1 284.678 293.636 277.022C299.173 269.366 297.251 264.613 292.431 264.428C287.612 264.243 289.777 271.945 283.761 274.199C277.742 276.453 276.604 267.795 276.604 267.795C276.604 267.795 274.61 252.098 273.648 249.521L256.018 253.643C256.018 253.643 252.381 253.338 250.423 250.919C249.888 248.273 249.755 245.576 250.03 242.899C250.43 239.677 251.709 236.932 254.289 235.176C254.289 235.176 255.213 234.573 256.699 233.81C260.453 231.869 267.786 228.86 273.167 231.717C280.634 235.693 277.263 242.401 286.65 243.269C296.039 244.138 310.704 248.631 305.892 260.941Z" fill="url(#paint14_linear)"/>
<path d="M122.547 451.676C128.024 454.274 140.066 458.908 157.77 459.836C158.246 459.862 158.711 459.977 159.135 460.175C159.558 460.37 159.931 460.645 160.229 460.98C160.527 461.314 160.744 461.7 160.866 462.114C160.987 462.528 161.01 462.96 160.934 463.383L157.386 483.042C157.251 483.794 156.81 484.473 156.147 484.948C155.484 485.424 154.648 485.661 153.801 485.614C145.987 485.163 125.4 483.268 115.591 475.445C115.199 475.129 114.895 474.733 114.706 474.29C114.517 473.848 114.448 473.371 114.504 472.901C114.896 469.203 116.042 459.385 117.653 453.638C117.779 453.189 118.016 452.772 118.348 452.417C118.68 452.062 119.097 451.779 119.568 451.591C120.04 451.402 120.553 451.311 121.069 451.325C121.585 451.341 122.09 451.461 122.547 451.676Z" fill="#C1E2FF"/>
<path d="M222.914 260.941L201.816 265.045C201.134 265.172 200.5 265.459 199.981 265.877C199.462 266.296 199.075 266.829 198.86 267.425C198.506 268.478 198.601 270.002 199.703 272.17C202.912 278.5 196.088 281.45 192.718 284.479C189.347 287.502 184.305 291.4 190.936 306.77C195.836 318.112 190.3 321.976 184.35 325.383C182.219 326.503 180.189 327.772 178.281 329.175C171.532 334.577 171.295 335.22 183.019 351.202C194.743 367.182 169.61 379.923 155.099 364.612C140.589 349.299 154.678 330.475 159.734 324.211C160.798 322.927 161.682 321.531 162.366 320.054C164.642 314.963 163.556 309.183 156.548 300.243C147.582 288.795 153.229 272.813 166.897 270.003C175.442 268.246 176.861 265.88 176.728 264.348C176.661 263.792 176.402 263.27 175.989 262.85C161.811 259.649 141.594 249.514 141.594 249.514C141.933 248.728 142.346 247.969 142.828 247.248C145.083 243.979 150.464 238.597 160.148 241.627C173.639 245.841 173.639 242.806 178.214 241.791C182.79 240.778 186.397 239.803 194.921 244.754C203.443 249.706 207.835 239.352 215.619 242.348C218.124 243.309 219.765 245.57 220.844 248.202C223.165 253.742 222.914 260.941 222.914 260.941Z" fill="url(#paint15_linear)"/>
<path opacity="0.31" d="M253.779 290.425C253.779 290.425 247.755 291.538 249.846 302.044C251.938 312.55 258.044 318.887 268.001 318.615C277.959 318.344 273.324 307.658 273.324 307.658C273.324 307.658 262.539 306.379 258.54 300.618C254.541 294.859 253.779 290.425 253.779 290.425Z" fill="#354E4C"/>
<path d="M262.537 298.518C262.478 300.739 264.385 301.911 266.617 302.932C269.995 304.471 274.12 305.657 273.365 309.561C272.11 316.05 262.728 316.268 257.214 311.065C251.7 305.862 247.604 294.853 252.172 291.844C256.74 288.833 251.655 287.74 257.214 283.855C262.256 280.33 267.039 279.077 265.117 275.404C264.888 274.976 264.616 274.567 264.302 274.185C260.608 269.544 254.863 273.867 251.233 269.247C247.604 264.626 248.566 261.823 244.95 261.823C241.337 261.823 239.777 260.43 239.103 259.019C238.431 257.607 227.927 259.894 227.927 259.894C227.927 259.894 225.296 251.794 230.307 249.037C234.344 246.816 236.302 247.18 236.959 244.714C237.132 243.94 237.215 243.15 237.204 242.361C237.264 237.205 245.453 230.728 252.684 235.07L252.86 235.183C259.765 239.485 251.441 245.383 255.078 249.182C258.715 252.98 262.218 251.085 262.699 254.326C263.18 257.567 265.915 262.943 269.53 262.711C271.131 262.573 272.745 262.791 274.23 263.347C275.714 263.902 277.022 264.779 278.038 265.899C279.619 267.662 280.846 270.341 281.239 274.37C282.287 285.127 262.692 292.943 262.537 298.518Z" fill="url(#paint16_linear)"/>
<path d="M253.844 503.677C253.728 504.676 253.35 505.637 252.743 506.481C250.178 510.22 237.012 514.541 225.931 515.099C214.851 515.656 209.669 511.44 210.519 509.134C211.369 506.825 211.805 506.182 213.248 506.037C214.689 505.891 242.949 506.759 252.743 499.992C253.615 501.053 254.009 502.368 253.844 503.677Z" fill="white"/>
<path opacity="0.56" d="M253.845 503.677C252.293 505.003 249.241 507.973 235.115 510.652C220.686 513.388 210.521 509.141 210.521 509.141C211.402 506.82 211.807 506.189 213.248 506.044C214.691 505.898 242.951 506.766 252.745 499.999C253.615 501.058 254.008 502.372 253.845 503.677Z" fill="#F1F4F6"/>
<path d="M211.236 501.152C211.236 501.152 231.934 510.432 253.008 495.558C253.008 495.558 255.013 497.838 251.788 501.152C248.566 504.467 242.313 508.066 230.271 508.941C218.229 509.815 211.791 507.933 210.357 505.919C208.923 503.902 211.236 501.152 211.236 501.152Z" fill="#C4C4C4"/>
<path d="M252.233 571.459C252.233 571.75 252.233 572.049 252.195 572.348C251.583 587.593 252.062 611.343 248.751 614.306C246.245 616.553 235.587 617.62 227.558 617.793C226.427 617.793 225.341 617.832 224.35 617.832C223.566 618.204 223.064 618.429 222.975 618.496C221.181 618.538 219.387 618.412 217.624 618.117C216.699 617.872 217.061 616.937 218.104 615.651C220.868 612.225 228.453 606.246 229.192 603.814C229.606 602.44 227.455 591.477 224.588 577.226L224.845 577.286C226.493 577.637 235.801 579.4 244.116 576.564C247.265 575.512 250.059 573.756 252.233 571.459Z" fill="#4A79A2"/>
<path d="M224.532 577.214C224.532 577.214 222.44 576.552 223.053 575.703C223.667 574.855 229.248 576.678 235.124 576.459C241.002 576.239 250.005 572.217 252.363 568.777C254.721 565.336 254.099 569.479 252.777 570.858C251.453 572.236 246.368 581.091 224.532 577.214Z" fill="white"/>
<path opacity="0.56" d="M252.59 565.647C252.404 567.562 252.278 569.843 252.176 572.348C251.561 587.594 252.042 611.344 248.731 614.308C246.224 616.555 235.565 617.622 227.538 617.793C231.337 614.552 236.408 609.468 238.316 604.086C241.546 595.018 228.343 539.306 227.227 519.5C226.112 499.693 215.644 420.072 215.644 420.072L220.079 412.582L222.296 412.205L240.503 408.42L247.46 406.266C260.357 402.826 267.891 391.829 267.891 391.829C267.891 391.829 256.063 485.88 252.559 497.109C249.056 508.337 253.867 552.119 252.59 565.647Z" fill="#C1E2FF"/>
<path opacity="0.18" d="M106.564 141.575C104.058 138.062 101.39 136.159 100.34 137.2C99.2904 138.241 99.9409 139.752 100.776 141.528C100.303 140.673 95.3062 131.532 95.6461 125.792C95.9936 119.827 89.8804 110.288 89.6956 109.997C89.9248 110.255 94.7148 115.71 95.8902 119.939C97.0875 124.261 99.017 129.657 101.907 132.03C104.798 134.403 106.461 141.15 106.564 141.575Z" fill="#354E4C"/>
<path opacity="0.18" d="M148.885 156.688C148.146 156.489 127.381 150.961 123.353 141.575C119.25 132.017 118.518 124.248 111.178 120.145C104.348 116.327 100.038 113.437 99.4765 113.052C100.4 113.55 110.365 118.859 114.586 119.064C119.021 119.277 128.83 127.682 128.978 133.316C129.141 135.35 129.906 137.309 131.196 138.99C130.693 144.936 134.478 150.53 148.885 156.688Z" fill="#354E4C"/>
<path d="M110.306 148.794C110.487 149.1 110.598 149.436 110.631 149.781C110.505 149.443 110.394 149.118 110.306 148.794Z" fill="#354E4C"/>
<path opacity="0.18" d="M217.488 125.812C216.998 126.919 216.39 127.98 215.671 128.98C213.83 131.559 212.625 134.025 212.432 136.371C212.248 132.394 211.012 122.107 203.421 118.832C193.901 114.743 185.703 111.72 185.703 111.72C185.703 111.72 212.234 112.674 217.488 125.812Z" fill="#354E4C"/>
<path opacity="0.18" d="M156.194 95.4939C145.328 85.0806 137.381 90.6684 135.866 82.005C134.181 72.3738 113.801 71.6976 113.801 71.6976C113.801 71.6976 104.553 72.851 103.837 69.1855C103.548 67.7272 104.369 67.0511 105.891 66.9251C105.891 66.9251 102.935 69.3909 109.536 69.8284C116.137 70.2659 134.255 73.4277 137.625 77.7428C140.996 82.0579 144.226 86.5256 150.717 89.4024C153.651 90.6817 155.285 93.174 156.194 95.4939Z" fill="#354E4C"/>
<path opacity="0.18" d="M102.276 111.017C99.884 110.532 97.5344 109.892 95.2462 109.101C83.0419 104.899 81.7557 95.0225 81.1124 89.1165C80.4693 83.2106 78.5179 82.0637 78.5179 82.0637C80.2033 81.6197 82.5096 84.1915 83.8772 91.4299C85.9765 102.725 99.2969 109.605 102.276 111.017Z" fill="#354E4C"/>
<path d="M175.961 262.824C161.783 259.621 141.566 249.488 141.566 249.488C141.916 248.71 142.338 247.961 142.83 247.248C143.096 247.028 149.047 242.249 155.685 246.047C162.478 249.938 162.16 253.538 168.421 253.538C174.682 253.538 176.56 260.312 175.961 262.824Z" fill="url(#paint17_linear)"/>
<path opacity="0.18" d="M222.914 260.941L201.818 265.043C201.134 265.171 200.501 265.459 199.983 265.877C199.462 266.294 199.077 266.829 198.86 267.423C198.86 267.423 197.293 261.802 203.436 259.218C209.579 256.632 217.4 256.136 218.775 251.369C219.153 250.157 219.891 249.06 220.911 248.195C223.166 253.742 222.914 260.941 222.914 260.941Z" fill="#354E4C"/>
<path opacity="0.18" d="M158.818 294.416C165.005 307.375 165.885 314.725 162.359 320.028C164.635 314.937 163.549 309.157 156.541 300.215C147.575 288.769 153.222 272.787 166.89 269.976C175.435 268.22 176.855 265.854 176.721 264.322C177.165 265.854 177.165 268.338 174.201 270.95C169.337 275.193 152.631 281.457 158.818 294.416Z" fill="#51AEFF"/>
<path opacity="0.18" d="M184.32 325.389C188.245 316.394 180.623 315.613 179.692 303.456C178.746 290.862 192.258 284.671 192.687 284.484C189.317 287.507 184.275 291.405 190.906 306.777C195.807 318.118 190.27 322.015 184.32 325.389Z" fill="#354E4C"/>
<path d="M265.124 275.385C264.895 274.955 264.623 274.548 264.31 274.164C260.615 269.525 254.87 273.846 251.241 269.226C247.611 264.606 248.573 261.802 244.957 261.802C241.344 261.802 239.784 260.409 239.11 258.998C238.438 257.586 227.935 259.873 227.935 259.873C227.935 259.873 225.303 251.773 230.314 249.016C234.351 246.795 236.309 247.16 236.967 244.693C237.684 244.601 238.41 244.564 239.134 244.581C246.91 244.747 243.776 250.129 248.351 253.702C252.927 257.275 251.574 265.475 260.437 267.423C266.684 268.796 266.032 273.024 265.124 275.385Z" fill="url(#paint18_linear)"/>
<path opacity="0.18" d="M255.07 249.142C255.07 249.142 249.535 245.988 251.219 242.341C252.138 240.023 252.685 237.6 252.846 235.143C259.75 239.445 251.426 245.345 255.07 249.142Z" fill="#354E4C"/>
<path opacity="0.18" d="M262.537 298.518C262.478 300.739 264.385 301.911 266.617 302.933C266.617 302.933 258.443 300.891 259.41 293.984C260.379 287.077 274.992 284.797 277.433 274.165C278.158 271.447 278.36 268.639 278.031 265.859C279.612 267.622 280.839 270.301 281.232 274.331C282.289 285.129 262.692 292.943 262.537 298.518Z" fill="#354E4C"/>
<path opacity="0.18" d="M328.609 248.188C328.364 247.975 324.056 244.211 324.832 236.396C325.637 228.336 325.852 217.564 306.085 217.332C316.146 214.648 329 215.071 329.97 226.148C331.099 239.523 326.154 243.62 328.609 248.188Z" fill="#354E4C"/>
<path opacity="0.18" d="M330.692 284.479C317.926 292.254 326.36 300.891 316.239 305.212C307.577 308.911 304.044 311.463 302.749 315.328C302.749 314.83 303.282 307.584 311.028 301.541C319.05 295.275 313.593 286.924 322.746 280.448C331.897 273.971 335.267 264.037 331.616 258.998C335.064 260.123 337.987 262.26 339.909 265.064C340.834 272.163 338.142 279.938 330.692 284.479Z" fill="#354E4C"/>
<path d="M121.394 207.893C121.394 207.893 103.764 205.587 95.2559 195.961C86.7477 186.336 86.7255 178.29 89.7046 175.825C92.6836 173.358 94.1398 181.882 94.9308 185.038C95.7218 188.193 99.0408 201.556 121.394 207.893Z" fill="#4A79A1"/>
<path d="M98.1316 189.738C98.1316 189.738 95.9139 185.721 96.3724 183.201C96.8306 180.684 97.6438 184.912 98.1316 186.471C98.4104 187.545 98.4104 188.663 98.1316 189.738Z" fill="#51AEFF"/>
<path d="M233.288 351.386C232.587 351.471 231.874 351.424 231.195 351.248C230.516 351.071 229.885 350.769 229.343 350.362C228.801 349.955 228.36 349.45 228.048 348.882C227.736 348.312 227.558 347.692 227.529 347.058L225.903 325.111C225.802 323.781 226.261 322.467 227.191 321.428C228.12 320.388 229.453 319.701 230.921 319.504C231.622 319.418 232.335 319.464 233.014 319.64C233.694 319.817 234.324 320.119 234.866 320.526C235.408 320.933 235.848 321.438 236.16 322.008C236.471 322.577 236.646 323.198 236.673 323.832L238.307 345.779C238.41 347.108 237.948 348.422 237.019 349.462C236.089 350.502 234.756 351.188 233.288 351.386Z" fill="white"/>
<path d="M121.673 453.221C121.673 453.221 134.314 459.114 143.761 460.12C153.208 461.129 157.857 461.275 157.54 464.298C157.222 467.319 155.936 482.857 154.006 483.519C152.077 484.183 133.456 482.003 126.072 479.125C118.687 476.249 116.277 474.228 116.462 472.935C116.647 471.642 119.862 453.221 119.862 453.221C119.862 453.221 120.491 452.075 121.673 453.221Z" stroke="white" stroke-miterlimit="10"/>
<path opacity="0.29" d="M111.176 375.396C106.297 375.237 100.79 372.779 95.9927 368.708C95.8226 368.311 92.5405 360.382 88.8297 356.08C85.1189 351.779 85.8729 342.096 85.9173 341.783C89.362 350.965 99.0159 369.457 120.933 369.132C120.933 369.132 124.541 375.827 111.176 375.396Z" fill="#4A79A1"/>
<path d="M106.608 285.561C106.608 285.561 122.871 291.479 130.359 291.526C130.359 291.526 130.817 294.84 128.541 295.165C126.264 295.49 110.852 291.903 108.286 290.366C105.721 288.828 106.608 285.561 106.608 285.561Z" stroke="white" stroke-miterlimit="10"/>
<path d="M115.236 313.245C116.579 313.245 117.668 312.271 117.668 311.065C117.668 309.861 116.579 308.884 115.236 308.884C113.893 308.884 112.804 309.861 112.804 311.065C112.804 312.271 113.893 313.245 115.236 313.245Z" stroke="white" stroke-miterlimit="10"/>
<path d="M111.021 323.255C112.364 323.255 113.453 322.279 113.453 321.075C113.453 319.869 112.364 318.894 111.021 318.894C109.678 318.894 108.589 319.869 108.589 321.075C108.589 322.279 109.678 323.255 111.021 323.255Z" stroke="white" stroke-miterlimit="10"/>
<path d="M234.535 358.261C235.877 358.261 236.967 357.284 236.967 356.08C236.967 354.877 235.877 353.9 234.535 353.9C233.191 353.9 232.103 354.877 232.103 356.08C232.103 357.284 233.191 358.261 234.535 358.261Z" stroke="white" stroke-miterlimit="10"/>
<path d="M270.297 349.916C271.641 349.916 272.729 348.94 272.729 347.736C272.729 346.53 271.641 345.553 270.297 345.553C268.955 345.553 267.865 346.53 267.865 347.736C267.865 348.94 268.955 349.916 270.297 349.916Z" stroke="white" stroke-miterlimit="10"/>
<path opacity="0.25" d="M84.9741 175.36C84.9741 175.36 114.232 188.246 127.693 207.21C141.154 226.174 142.026 211.286 138.626 207.21C135.225 203.134 129.526 188.782 115.481 179.583C101.436 170.382 87.3025 165.795 84.9741 175.36Z" fill="white"/>
<path opacity="0.25" d="M137.891 220.236C137.891 220.236 138.239 216.862 141.587 216.876C144.936 216.89 146.133 219.858 144.855 221.237C143.576 222.615 137.063 224.015 137.891 220.236Z" fill="white"/>
<path d="M175.984 618.866C175.755 621.12 175.482 622.52 175.245 622.843C174.21 624.387 151.406 627.794 143.46 627.794C137.908 627.794 134.39 627.04 133.71 625.535C133.71 625.561 167.329 624.553 175.984 618.866Z" fill="#C1E2FF"/>
<path d="M250.32 613.478C250.145 613.944 249.87 614.376 249.506 614.744C245.44 618.403 221.003 619.013 217.602 618.092C216.678 617.846 217.04 616.911 218.083 615.625C218.083 615.625 236.068 617.68 250.32 613.478Z" fill="#C1E2FF"/>
<path d="M281.275 616.845H262.054C262.054 616.845 258.196 609.7 262.054 605.385C265.915 601.069 268.863 585.499 268.863 585.499L275.716 572.785C275.716 572.785 286.62 560.444 288.549 557.851C290.478 555.26 292.865 566.032 302.749 570.367C312.631 574.702 317.924 587.156 317.924 587.156L281.275 616.845Z" fill="url(#paint19_linear)"/>
<path opacity="0.18" d="M133.96 110.434C130.264 108.095 126.65 106.146 124.661 100.922C120.647 90.4163 112.945 91.7087 105.93 88.1094C104.291 87.3038 102.825 86.2446 101.598 84.9809C107.393 87.7251 117.217 90.2173 119.524 91.2779C122.658 92.7163 125.844 99.6233 127.47 103.66C128.379 105.986 131.477 108.625 133.96 110.434Z" fill="#354E4C"/>
<path d="M32.4751 63.756C32.305 63.4774 27.3006 55.1056 34.0052 46.8201L35.8901 48.6297C35.8901 48.6297 29.7844 53.9921 32.4751 63.756Z" fill="url(#paint20_linear)"/>
<path d="M72.5309 25.9012C61.5463 23.8595 55.7953 29.5336 55.7953 29.5336L53.7772 27.976C53.7772 27.976 62.4998 22.1892 72.5235 25.8945L72.5309 25.9012Z" fill="url(#paint21_linear)"/>
<path d="M113.271 215.894C113.544 215.894 113.766 215.695 113.766 215.45C113.766 215.204 113.544 215.006 113.271 215.006C112.997 215.006 112.776 215.204 112.776 215.45C112.776 215.695 112.997 215.894 113.271 215.894Z" fill="white"/>
<path d="M525.951 616.845H281.275C281.275 592.551 294.756 588.886 301.973 582.164C303.828 580.464 305.523 578.628 307.044 576.676C309.068 574.074 310.612 571.197 311.612 568.151C312.572 565.567 314.982 564.267 314.982 559.536C314.982 554.803 319.794 555.22 318.455 543.554C318.268 541.808 318.291 540.051 318.522 538.31C319.86 527.142 328.509 513.056 340.506 503.53C354.477 492.448 365.071 446.38 369.409 432.56C373.748 418.739 382.892 424.353 386.262 429.537C389.635 434.719 405.047 460.631 420.939 466.657C436.832 472.681 445.99 489.121 446.471 503.079C446.551 504.621 446.857 506.146 447.381 507.614C449.599 514.05 455.401 521.626 461.551 528.685C461.554 528.701 461.554 528.716 461.551 528.732C467.834 535.938 474.45 542.605 477.887 546.954C478.39 547.616 478.826 548.174 479.181 548.705C484.961 557.32 494.593 565.985 509.038 573.746C523.482 581.509 525.951 616.845 525.951 616.845Z" fill="url(#paint22_linear)"/>
<path d="M33.7546 625.822H121.395C121.395 625.822 125.142 619.134 119.177 615.793C113.212 612.453 112.051 585.594 106.137 581.749C100.224 577.905 94.9237 570.806 94.9237 570.806C94.9237 570.806 99.5659 551.96 82.5568 571.84C65.5477 591.718 64.6459 602.085 59.3162 605.107C53.9865 608.13 43.867 605.32 41.9449 611.478C40.023 617.637 33.7546 625.822 33.7546 625.822Z" fill="url(#paint23_linear)"/>
<path d="M377.673 423.871C377.673 423.871 368.982 449.059 369.949 463.722C370.918 478.382 366.572 499.7 364.169 504.818C361.766 509.936 344.845 516.662 340.055 525.823C335.266 534.984 342.008 509.644 350.678 501.152C359.35 492.661 367.096 431.103 377.673 423.871Z" fill="url(#paint24_linear)"/>
<path opacity="0.56" d="M338.467 527.79C338.467 527.79 328.044 545.78 326.152 552.687C324.259 559.595 306.872 578.173 306.872 578.173C306.872 578.173 306.948 577.63 307.087 576.669C309.113 574.067 310.657 571.19 311.655 568.144C312.617 565.56 315.027 564.26 315.027 559.529C315.027 554.796 319.839 555.213 318.5 543.547C318.313 541.801 318.336 540.044 318.567 538.303C325.412 533.34 338.467 527.79 338.467 527.79Z" fill="#4389C6"/>
<path opacity="0.4" d="M342.813 616.846C342.813 616.846 350.523 566.516 355.978 560.463C361.434 554.413 369.144 523.232 371.709 517.379C374.274 511.525 377.852 504.619 377.673 501.589C377.497 498.561 377.673 492.801 377.673 492.801C377.673 492.801 369.144 512.294 365.293 514.674C361.441 517.054 337.033 535.164 335.103 541.188C333.174 547.214 323.867 579.323 308.773 587.177C293.677 595.032 282.39 605.963 282.39 605.963L281.275 616.859L342.813 616.846Z" fill="#51AEFF"/>
<path opacity="0.4" d="M525.953 616.846H365.939C365.939 616.846 376.531 567.954 379.421 562.492C382.312 557.03 384.241 511.373 389.031 504.825C393.821 498.276 393.208 478.41 391.922 474.38C390.636 470.35 383.894 457.543 383.894 452.717C383.894 447.892 381.676 431.765 381.676 431.765C381.676 431.765 404.472 462.993 413.787 467.394C423.1 471.795 439.475 485.953 441.721 495.565C442.262 497.885 444.293 502.232 447.406 507.634C451.639 514.915 456.372 521.953 461.576 528.708C461.579 528.722 461.579 528.737 461.576 528.753C466.476 535.206 471.937 541.298 477.912 546.975C478.415 547.639 478.851 548.194 479.206 548.726C484.986 557.343 494.618 566.006 509.063 573.767C523.507 581.53 525.953 616.846 525.953 616.846Z" fill="#51AEFF"/>
<path opacity="0.56" d="M268.863 389.627C268.622 390.391 268.305 391.135 267.918 391.848C267.748 393.174 256.09 485.972 252.586 497.116C249.083 508.258 253.865 552.133 252.586 565.64C252.424 567.325 252.305 569.294 252.21 571.453C252.21 571.745 252.21 572.044 252.172 572.343C251.56 587.587 252.04 611.337 248.728 614.301C246.222 616.548 235.563 617.615 227.535 617.788C226.403 617.788 225.317 617.827 224.326 617.827C229.087 615.56 244.412 607.825 243.59 602.309C243.199 599.659 243.819 589.198 244.064 576.526C244.412 558.098 243.967 534.977 238.438 524.299C229.109 506.289 220.787 460.267 232.2 436.69C236.242 428.318 238.645 418.191 240.065 408.598C240.544 405.324 240.915 402.123 241.196 399.067C241.38 397.018 241.528 395.029 241.639 393.148C241.773 390.979 241.868 388.946 241.928 387.076C241.928 386.659 241.928 386.248 241.964 385.843C241.964 384.516 242.016 383.351 242.023 382.263C242.023 378.027 241.942 375.45 241.942 375.45L266.217 367.091C266.439 371.18 266.351 369.742 266.417 371.201C266.417 371.863 266.469 372.261 266.469 372.261C267.684 373.432 268.487 374.898 268.775 376.477C268.775 376.477 269.752 380.362 268.849 383.603C267.947 386.844 269.766 386.844 268.863 389.627Z" fill="#4A79A1"/>
<path opacity="0.56" d="M220.093 412.596L200.651 458.001C199.867 454.924 199.174 452.034 198.545 449.443L220.093 412.596Z" fill="#4A79A1"/>
<path opacity="0.56" d="M166.847 508.941C165.886 517.293 170.062 552.133 173.596 576.32C173.648 576.671 173.699 577.022 173.744 577.368C173.84 578.03 173.921 578.654 174.01 579.297C176.967 602.131 175.488 620.718 174.557 622.097C173.818 623.236 160.371 625.457 151.146 626.325C154.842 625.796 168.096 622.202 167.667 598.055C167.473 592.247 166.948 586.453 166.093 580.695C162.064 551.151 152.336 510.432 160.978 492.476C171.504 470.642 196.504 428.955 196.29 423.885C196.075 418.813 211.207 413.669 211.207 413.669L220.077 412.608V412.669C218.524 415.234 167.8 500.701 166.847 508.941Z" fill="#4A79A2"/>
<path opacity="0.56" d="M268.864 389.627C268.622 390.391 268.305 391.133 267.918 391.848C265.812 395.739 259.55 403.116 240.065 408.558C231.438 410.873 222.601 412.491 213.653 413.398C212.832 413.491 212.019 413.576 211.207 413.65C180.899 416.672 157.244 412.575 143.761 408.485C160.083 408.757 158.02 405.17 167.667 402.149C177.314 399.127 191.012 401.307 203.414 400.365C215.819 399.424 240.375 390.721 252.424 385.783C257.16 383.924 261.449 381.261 265.057 377.942C266.224 376.879 267.233 375.684 268.058 374.388C268.426 375.052 268.674 375.763 268.797 376.497C268.797 376.497 269.773 380.381 268.872 383.622C267.97 386.863 269.766 386.844 268.864 389.627Z" fill="black"/>
<defs>
<linearGradient id="paint0_linear" x1="66.0034" y1="142.264" x2="185.875" y2="242.325" gradientUnits="userSpaceOnUse">
<stop offset="0.41" stop-color="#C1E2FF"/>
<stop offset="1" stop-color="#4A79A1"/>
</linearGradient>
<linearGradient id="paint1_linear" x1="67077.4" y1="28648" x2="92997.9" y2="28648" gradientUnits="userSpaceOnUse">
<stop stop-color="white"/>
<stop offset="0.38" stop-color="#C1E2FF"/>
<stop offset="0.99" stop-color="#4A79A1"/>
</linearGradient>
<linearGradient id="paint2_linear" x1="82.051" y1="179.835" x2="154.067" y2="228.665" gradientUnits="userSpaceOnUse">
<stop stop-color="#4A79A1"/>
<stop offset="0.87" stop-color="#1E3E5A"/>
</linearGradient>
<linearGradient id="paint3_linear" x1="4749.63" y1="4355.58" x2="4935.33" y2="4384.24" gradientUnits="userSpaceOnUse">
<stop stop-color="#45695E"/>
<stop offset="0.87" stop-color="#1B232A"/>
</linearGradient>
<linearGradient id="paint4_linear" x1="41008.4" y1="51944.7" x2="55869.8" y2="51944.7" gradientUnits="userSpaceOnUse">
<stop stop-color="white"/>
<stop offset="0.38" stop-color="#51AEFF"/>
<stop offset="0.99" stop-color="#4A79A1"/>
</linearGradient>
<linearGradient id="paint5_linear" x1="38217.7" y1="12206.8" x2="48162" y2="12206.8" gradientUnits="userSpaceOnUse">
<stop stop-color="white"/>
<stop offset="0.38" stop-color="#51AEFF"/>
<stop offset="0.99" stop-color="#5897CE"/>
</linearGradient>
<linearGradient id="paint6_linear" x1="86919.9" y1="68370.7" x2="120826" y2="95906.2" gradientUnits="userSpaceOnUse">
<stop stop-color="white"/>
<stop offset="0.38" stop-color="#99D0B5"/>
<stop offset="0.99" stop-color="#5F9D84"/>
</linearGradient>
<linearGradient id="paint7_linear" x1="60653.6" y1="71950.8" x2="87693.5" y2="82020.9" gradientUnits="userSpaceOnUse">
<stop stop-color="white"/>
<stop offset="0.38" stop-color="#99D0B5"/>
<stop offset="0.99" stop-color="#5F9D84"/>
</linearGradient>
<linearGradient id="paint8_linear" x1="208.184" y1="243.198" x2="213.459" y2="369.134" gradientUnits="userSpaceOnUse">
<stop stop-color="#C1E2FF"/>
<stop offset="0.38" stop-color="#51AEFF"/>
<stop offset="0.99" stop-color="#4A79A1"/>
</linearGradient>
<linearGradient id="paint9_linear" x1="172.044" y1="249.018" x2="172.044" y2="385.764" gradientUnits="userSpaceOnUse">
<stop stop-color="#C1E2FF"/>
<stop offset="0.38" stop-color="#51AEFF"/>
<stop offset="0.99" stop-color="#5897CE"/>
</linearGradient>
<linearGradient id="paint10_linear" x1="22542" y1="9288.81" x2="27538.9" y2="15242.5" gradientUnits="userSpaceOnUse">
<stop stop-color="white"/>
<stop offset="0.38" stop-color="#51AEFF"/>
<stop offset="0.99" stop-color="#4A79A1"/>
</linearGradient>
<linearGradient id="paint11_linear" x1="51.5019" y1="43.7849" x2="81.3619" y2="72.6057" gradientUnits="userSpaceOnUse">
<stop stop-color="#EE7671"/>
<stop offset="1" stop-color="#1B232A" stop-opacity="0"/>
</linearGradient>
<linearGradient id="paint12_linear" x1="133.029" y1="103.421" x2="143.339" y2="164.488" gradientUnits="userSpaceOnUse">
<stop stop-color="white"/>
<stop offset="1" stop-color="#B4E4F4"/>
</linearGradient>
<linearGradient id="paint13_linear" x1="59812" y1="57879.5" x2="70946" y2="56732.1" gradientUnits="userSpaceOnUse">
<stop stop-color="white"/>
<stop offset="0.38" stop-color="#99D0B5"/>
<stop offset="0.99" stop-color="#5F9D84"/>
</linearGradient>
<linearGradient id="paint14_linear" x1="37406.2" y1="35739.8" x2="41812.5" y2="35286.7" gradientUnits="userSpaceOnUse">
<stop stop-color="white"/>
<stop offset="0.38" stop-color="#99D0B5"/>
<stop offset="0.99" stop-color="#5F9D84"/>
</linearGradient>
<linearGradient id="paint15_linear" x1="41298.4" y1="76490.9" x2="50362.7" y2="78581.6" gradientUnits="userSpaceOnUse">
<stop stop-color="white"/>
<stop offset="0.38" stop-color="#99D0B5"/>
<stop offset="0.99" stop-color="#5F9D84"/>
</linearGradient>
<linearGradient id="paint16_linear" x1="32995.9" y1="44930.7" x2="39408.3" y2="45334.7" gradientUnits="userSpaceOnUse">
<stop stop-color="white"/>
<stop offset="0.38" stop-color="#99D0B5"/>
<stop offset="0.99" stop-color="#5F9D84"/>
</linearGradient>
<linearGradient id="paint17_linear" x1="17807.6" y1="9711.53" x2="19001.2" y2="10549.2" gradientUnits="userSpaceOnUse">
<stop stop-color="white"/>
<stop offset="0.38" stop-color="#51AEFF"/>
<stop offset="0.99" stop-color="#4A79A1"/>
</linearGradient>
<linearGradient id="paint18_linear" x1="23679.9" y1="16597" x2="26923.7" y2="16980.1" gradientUnits="userSpaceOnUse">
<stop stop-color="white"/>
<stop offset="0.38" stop-color="#99D0B5"/>
<stop offset="0.99" stop-color="#5F9D84"/>
</linearGradient>
<linearGradient id="paint19_linear" x1="40556.4" y1="56942.7" x2="40428.4" y2="63356.9" gradientUnits="userSpaceOnUse">
<stop stop-color="white"/>
<stop offset="0.38" stop-color="#99D0B5"/>
<stop offset="0.99" stop-color="#5F9D84"/>
</linearGradient>
<linearGradient id="paint20_linear" x1="1658.07" y1="3025.66" x2="2502.22" y2="3299.42" gradientUnits="userSpaceOnUse">
<stop stop-color="#51AEFF"/>
<stop offset="0.87" stop-color="#1B232A"/>
</linearGradient>
<linearGradient id="paint21_linear" x1="6527.9" y1="681.966" x2="6725.78" y2="1460.26" gradientUnits="userSpaceOnUse">
<stop stop-color="#51AEFF"/>
<stop offset="0.87" stop-color="#1B232A"/>
</linearGradient>
<linearGradient id="paint22_linear" x1="208939" y1="151250" x2="208939" y2="207425" gradientUnits="userSpaceOnUse">
<stop stop-color="white"/>
<stop offset="0.38" stop-color="#99D0B5"/>
<stop offset="0.99" stop-color="#5F9D84"/>
</linearGradient>
<linearGradient id="paint23_linear" x1="37268.5" y1="60501.9" x2="36940.8" y2="69730.7" gradientUnits="userSpaceOnUse">
<stop stop-color="white"/>
<stop offset="0.38" stop-color="#99D0B5"/>
<stop offset="0.99" stop-color="#5F9D84"/>
</linearGradient>
<linearGradient id="paint24_linear" x1="32021.6" y1="80366.3" x2="22764.7" y2="101230" gradientUnits="userSpaceOnUse">
<stop stop-color="white"/>
<stop offset="0.38" stop-color="#99D0B5"/>
<stop offset="0.99" stop-color="#5F9D84"/>
</linearGradient>
</defs>
</svg>
